# xmcd
#
# Track frame offsets:
#	150
#	21364
#	36722
#	53518
#	73581
#	91486
#	112643
#	133223
#	153329
#	173997
#	213685
#	234445
#	247926
#	263167
#	276633
#	294313
#	312342
#
# Disc length: 4428 seconds
#
# Revision: 0
# Processed by: cddbd v1.4PL0 Copyright (c) Steve Scherf et al.
# Submitted via: audiograbber 1.81.03
#
DISCID=fb114a11
DTITLE=Lucinda Williams - Still I Long For Your Kiss (bootleg)
DYEAR=1900
DGENRE=
TTITLE0=Pineola (Hard Rock Live 1998)
TTITLE1=Drunken Angel (Hard Rock Live 1998)
TTITLE2=Changed The Locks (Hard Rock Live 1998)
TTITLE3=Right In Time (Sessions At West 54th 1998)
TTITLE4=Can't Let Go (Sessions At West 54th 1998)
TTITLE5=Car Wheels (Sessions At West 54th 1998)
TTITLE6=Greenville (Austin City Limits 1999)
TTITLE7=Still I Long For Your Kiss (Austin City Limits 1999)
TTITLE8=Jackson (Austin City Limits 1999)
TTITLE9=Joy (Austin City Limits 1999)
TTITLE10=2 Cool 2 Be Forgotten (Saturday Night Live 1999)
TTITLE11=I Just Want To See You So Bad (Austin 3-17-95)
TTITLE12=Metal Firecracker (Austin 3-17-95)
TTITLE13=Passionate Kisses (Austin City Limits 3-24-94)
TTITLE14=Big Red Sun Blues (Austin City Limits 3-24-94)
TTITLE15=It Doesn't Mean (Camp Mather, Calif. 9-3-93)
TTITLE16=Sweet Old World (Camp Mather, Calif. 9-3-93)
EXTD=
EXTT0=
EXTT1=
EXTT2=
EXTT3=
EXTT4=
EXTT5=
EXTT6=
EXTT7=
EXTT8=
EXTT9=
EXTT10=
EXTT11=
EXTT12=
EXTT13=
EXTT14=
EXTT15=
EXTT16=
PLAYORDER=
